<svg xmlns="http://www.w3.org/2000/svg" viewBox="0 0 512 512">
  <defs>
    <linearGradient id="bgGradient" x1="0%" y1="0%" x2="100%" y2="100%">
      <stop offset="0%" stop-color="#3B82F6"/>
      <stop offset="100%" stop-color="#1D4ED8"/>
    </linearGradient>
    <linearGradient id="shieldGradient" x1="0%" y1="0%" x2="0%" y2="100%">
      <stop offset="0%" stop-color="#FFFFFF"/>
      <stop offset="100%" stop-color="#E0E7FF"/>
    </linearGradient>
    <linearGradient id="coreDarkGradient" x1="0%" y1="0%" x2="100%" y2="100%">
      <stop offset="0%" stop-color="#2563EB"/>
      <stop offset="100%" stop-color="#1E40AF"/>
    </linearGradient>
  </defs>

  <rect width="512" height="512" rx="108" fill="url(#bgGradient)"/>

  <path
    d="M256 72
       L400 128
       L400 272
       Q400 400 256 456
       Q112 400 112 272
       L112 128 Z"
    fill="url(#shieldGradient)"
  />

  <g transform="translate(256 248)" fill="url(#coreDarkGradient)">
    <path d="M-40 -60
             A 40 40 0 0 1 40 -60
             V -20
             H 20
             V -60
             A 20 20 0 0 0 -20 -60
             V -20
             H -40
             Z" />

    <path d="M-55 -20 H 55 A 10 10 0 0 1 65 -10 V 60 A 20 20 0 0 1 45 80 H -45 A 20 20 0 0 1 -65 60 V -10 A 10 10 0 0 1 -55 -20 Z" />

    <circle cx="0" cy="30" r="18" fill="#FFFFFF"/>
    <circle cx="0" cy="30" r="10" fill="url(#coreDarkGradient)"/>
    <rect x="-4" y="40" width="8" height="15" fill="#FFFFFF"/>
  </g>

  <circle cx="256" cy="372" r="30" fill="url(#coreDarkGradient)"/>
  <path
    d="M240 372 L252 384 L276 360"
    fill="none"
    stroke="#FFFFFF"
    stroke-width="7"
    stroke-linecap="round"
    stroke-linejoin="round"
  />
</svg>